
<svg width="48" height="48" viewBox="0 0 48 48" fill="none" xmlns="http://www.w3.org/2000/svg">
  <g transform="scale(0.12)">
    <path d="M200 10L200 70L150 120L150 170L200 220L250 170L250 120L200 10Z" fill="url(#gradient1)"/>
    <path d="M120 120L200 120L200 170L150 170L100 220L75 195L120 120Z" fill="url(#gradient2)"/>
    <path d="M280 120L230 170L230 220L280 270L305 245L250 170L280 120Z" fill="url(#gradient2)"/>
    <path d="M200 220L150 270L200 320L250 270L200 220Z" fill="url(#gradient3)"/>
    <circle cx="200" cy="85" r="25" fill="#1a1a1a"/>
    <path d="M180 120L200 140L220 120" stroke="#ffa500" stroke-width="4" fill="none"/>
  </g>
  <defs>
    <linearGradient id="gradient1" x1="0%" y1="0%" x2="0%" y2="100%">
      <stop offset="0%" style="stop-color:#ff6b35"/>
      <stop offset="100%" style="stop-color:#ff4500"/>
    </linearGradient>
    <linearGradient id="gradient2" x1="0%" y1="0%" x2="100%" y2="0%">
      <stop offset="0%" style="stop-color:#ff8c42"/>
      <stop offset="100%" style="stop-color:#ffa500"/>
    </linearGradient>
    <linearGradient id="gradient3" x1="0%" y1="0%" x2="0%" y2="100%">
      <stop offset="0%" style="stop-color:#ff1744"/>
      <stop offset="100%" style="stop-color:#d81b60"/>
    </linearGradient>
  </defs>
</svg>
