
<svg width="32" height="32" viewBox="0 0 32 32" fill="none" xmlns="http://www.w3.org/2000/svg">
  <g transform="scale(0.08)">
    <path d="M200 25L200 75L160 115L160 155L200 195L240 155L240 115L200 25Z" fill="url(#gradient1)"/>
    <path d="M140 115L200 115L200 155L160 155L120 195L100 175L140 115Z" fill="url(#gradient2)"/>
    <path d="M260 115L220 155L220 195L260 235L280 215L240 155L260 115Z" fill="url(#gradient2)"/>
    <path d="M200 195L160 235L200 275L240 235L200 195Z" fill="url(#gradient3)"/>
    <circle cx="200" cy="95" r="20" fill="#1a1a1a"/>
    <path d="M185 115L200 130L215 115" stroke="#ffa500" stroke-width="3" fill="none"/>
  </g>
  <defs>
    <linearGradient id="gradient1" x1="0%" y1="0%" x2="0%" y2="100%">
      <stop offset="0%" style="stop-color:#ff6b35"/>
      <stop offset="100%" style="stop-color:#ff4500"/>
    </linearGradient>
    <linearGradient id="gradient2" x1="0%" y1="0%" x2="100%" y2="0%">
      <stop offset="0%" style="stop-color:#ff8c42"/>
      <stop offset="100%" style="stop-color:#ffa500"/>
    </linearGradient>
    <linearGradient id="gradient3" x1="0%" y1="0%" x2="0%" y2="100%">
      <stop offset="0%" style="stop-color:#ff1744"/>
      <stop offset="100%" style="stop-color:#d81b60"/>
    </linearGradient>
  </defs>
</svg>
