
<svg width="128" height="128" viewBox="0 0 128 128" fill="none" xmlns="http://www.w3.org/2000/svg">
  <rect width="128" height="128" rx="20" fill="#000000"/>
  <g transform="translate(14, 10) scale(0.25)">
    <path d="M200 10L200 90L140 150L140 200L200 260L260 200L260 150L200 10Z" fill="url(#gradient1)"/>
    <path d="M100 150L200 150L200 200L140 200L80 260L50 230L100 150Z" fill="url(#gradient2)"/>
    <path d="M300 150L240 200L240 260L300 320L330 290L260 200L300 150Z" fill="url(#gradient2)"/>
    <path d="M200 260L140 320L200 380L260 320L200 260Z" fill="url(#gradient3)"/>
    <circle cx="200" cy="120" r="35" fill="#1a1a1a"/>
    <circle cx="200" cy="120" r="15" fill="#ff6b35"/>
    <path d="M170 150L200 180L230 150" stroke="#ffa500" stroke-width="6" fill="none" stroke-linecap="round"/>
  </g>
  <defs>
    <linearGradient id="gradient1" x1="0%" y1="0%" x2="0%" y2="100%">
      <stop offset="0%" style="stop-color:#ff6b35"/>
      <stop offset="50%" style="stop-color:#ff5722"/>
      <stop offset="100%" style="stop-color:#ff4500"/>
    </linearGradient>
    <linearGradient id="gradient2" x1="0%" y1="0%" x2="100%" y2="0%">
      <stop offset="0%" style="stop-color:#ff8c42"/>
      <stop offset="100%" style="stop-color:#ffa500"/>
    </linearGradient>
    <linearGradient id="gradient3" x1="0%" y1="0%" x2="0%" y2="100%">
      <stop offset="0%" style="stop-color:#ff1744"/>
      <stop offset="50%" style="stop-color:#e91e63"/>
      <stop offset="100%" style="stop-color:#d81b60"/>
    </linearGradient>
  </defs>
</svg>
