
<svg xmlns="http://www.w3.org/2000/svg" viewBox="0 0 32 32" fill="none">
  <path d="M16 2L18 8L16 14L14 8L16 2Z" fill="#ff6b35" stroke="#ff4500" stroke-width="1"/>
  <path d="M16 14L20 16L24 14L20 12L16 14Z" fill="#ff8c42" stroke="#ff6b35" stroke-width="1"/>
  <path d="M16 14L12 16L8 14L12 12L16 14Z" fill="#ff8c42" stroke="#ff6b35" stroke-width="1"/>
  <circle cx="16" cy="10" r="2" fill="#fff" stroke="#ff4500" stroke-width="1"/>
  <path d="M14 20L16 26L18 20L16 18L14 20Z" fill="#ff4500" stroke="#d63031" stroke-width="1"/>
  <path d="M12 22L14 28L16 22L14 20L12 22Z" fill="#e17055" stroke="#d63031" stroke-width="1"/>
  <path d="M18 22L20 28L18 20L20 22Z" fill="#e17055" stroke="#d63031" stroke-width="1"/>
</svg>
